<svg id="Ebene_1" data-name="Ebene 1" xmlns="http://www.w3.org/2000/svg" viewBox="0 0 637.05 176.2"><defs><style>.cls-1{fill:#451818;}.cls-1,.cls-2,.cls-4{fill-opacity:0;}.cls-2{stroke:#556c5f;stroke-width:0.25px;}.cls-3{fill:#f7b500;}.cls-4{stroke:#000;stroke-opacity:0;}.cls-5{fill:#00694c;}</style></defs><path id="c6efTiydjs" class="cls-1" d="M453.6,133.4h0v46.8H193.1V133.4H453.6Z" transform="translate(-1.86 -4.5)"/><path id="c6efTiydjs-2" data-name="c6efTiydjs" class="cls-2" d="M453.6,133.4h0v46.8H193.1V133.4H453.6Z" transform="translate(-1.86 -4.5)"/><path id="c1junS84H" class="cls-3" d="M299.4,76.5C299,37.2,331.6,5.4,370.9,5c39.7-.4,73,31.8,72.6,71.5-.4,26.6-10.9,45.3-33.3,59.5q-7.8,0-78.6-.4C310.1,114,299.4,94.2,299.4,76.5Z" transform="translate(-1.86 -4.5)"/><path id="c1junS84H-2" data-name="c1junS84H" class="cls-4" d="M299.4,76.5C299,37.2,331.6,5.4,370.9,5c39.7-.4,73,31.8,72.6,71.5-.4,26.6-10.9,45.3-33.3,59.5q-7.8,0-78.6-.4C310.1,114,299.4,94.2,299.4,76.5Z" transform="translate(-1.86 -4.5)"/><path id="b1XqHgIv" class="cls-5" d="M453.6,133.4h0v46.8H193.1V133.4H453.6Z" transform="translate(-1.86 -4.5)"/><path id="b1XqHgIv-2" data-name="b1XqHgIv" class="cls-4" d="M453.6,133.4h0v46.8H193.1V133.4H453.6Z" transform="translate(-1.86 -4.5)"/><path id="fIsbqe9bk" d="M530.3,85.1a6.23,6.23,0,0,0-3.7,2.6,18.17,18.17,0,0,0-2.6,7.5c-.8,6.4-1.9,12.7-1.9,19.1a36.29,36.29,0,0,0,.7,12.7c.4,2.6,2.2,6.4,5.2,6,2.6-.4,4.1-3.4,4.9-5.6,1.9-6.7,1.5-14.6,1.1-21.7,0,0,22.1-5.2,64.4,8.2,0,0,19.5,6,24.7,10.1,0,0,1.5-.4,1.5,5.6,0,0-.4,13.1,7.9,13.5,7.9.4,5.6-16.5,5.6-16.5s-.8-10.9-10.5-14.2c-9.4-3.4-27-14.6-69.6-18.3-5.2-.8-10.5-1.5-15.7-2.6-1.5-.4-3-.8-4.5-1.1a11.7,11.7,0,0,1-3.4-1.5c-.4-.4-.4-.8-.8-1.1-1-2.3-2.1-2.7-3.3-2.7" transform="translate(-1.86 -4.5)"/><path id="fIsbqe9bk-2" data-name="fIsbqe9bk" class="cls-4" d="M530.3,85.1a6.23,6.23,0,0,0-3.7,2.6,18.17,18.17,0,0,0-2.6,7.5c-.8,6.4-1.9,12.7-1.9,19.1a36.29,36.29,0,0,0,.7,12.7c.4,2.6,2.2,6.4,5.2,6,2.6-.4,4.1-3.4,4.9-5.6,1.9-6.7,1.5-14.6,1.1-21.7,0,0,22.1-5.2,64.4,8.2,0,0,19.5,6,24.7,10.1,0,0,1.5-.4,1.5,5.6,0,0-.4,13.1,7.9,13.5,7.9.4,5.6-16.5,5.6-16.5s-.8-10.9-10.5-14.2c-9.4-3.4-27-14.6-69.6-18.3-5.2-.8-10.5-1.5-15.7-2.6-1.5-.4-3-.8-4.5-1.1a11.7,11.7,0,0,1-3.4-1.5c-.4-.4-.4-.8-.8-1.1-1-2.3-2.1-2.7-3.3-2.7" transform="translate(-1.86 -4.5)"/><path id="aabvYwvpK" d="M633.3,59.3a2.36,2.36,0,0,0-3,.7c-1.5,1.5-4.1,4.5-3.7,7.1.4,3.4,4.1,6.4,6.7,6.4s4.9-3.4,4.9-7.1c-.4-3-2.3-6-4.9-7.1" transform="translate(-1.86 -4.5)"/><path id="aabvYwvpK-2" data-name="aabvYwvpK" class="cls-4" d="M633.3,59.3a2.36,2.36,0,0,0-3,.7c-1.5,1.5-4.1,4.5-3.7,7.1.4,3.4,4.1,6.4,6.7,6.4s4.9-3.4,4.9-7.1c-.4-3-2.3-6-4.9-7.1" transform="translate(-1.86 -4.5)"/><path id="c6StmQ7vy" d="M371.8,36.8h.4l.1.1.1.1.2.1.2.1.2.1.2.1.2.1.2.1.2.2.2.2.2.2.2.2.2.2.2.2.2.2.2.3.2.3.2.3.2.3.2.3.2.3.2.4.2.4.2.4.2.4.1.4.1.4.1.4.1.5.1.5v2.1l-.1.6h0V48l-.1.1v.1l-.1.1-.1.1-.1.1-.1.1-.1.1-.1.1-.1.1-.1.1-.1.1-.1.1-.1.1-.1.1-.1.1-.1.1-.1.1-.2.1-.2.1-.2.1-.2.1-.2.1-.2.1-.2.1-.2.1-.2.1-.2.1-.2.1H373l-.1.1-.1.1-.1.1-.1.1-.1.1-.1.1-.1.1-.1.1-.1.1-.1.1-.1.1-.1.1-.1.1-.1.1-.1.1-.1.1-.1.2-.1.1-.1.1-.1.2-.1.2-.1.2-.1.2-.1.2-.1.2-.1.2-.1.2-.1.3-.2.4-.3.5-.3.6-.4.7-.4.8-.4.9-.5,1-.5,1.1-.5,1.2-.6,1.3-.6,1.3-.6,1.4-.6,1.5-.6,1.5-.6,1.6-.7,1.6-.7,1.6-.7,1.7-.7,1.7-.7,1.7-.7,1.7-.6,1.7-.6,1.7-.6,1.7-.6,1.7L356,89l-.5,1.7-.5,1.6-.5,1.6-.4,1.6-.4,1.5-.3,1.5-.3,1.4-.2,1.4.1,2.7-.1,1.2-.1,1.1v1l.1,1h0v.5l.1.1v.1l.1.1.1.1.1.1.1.1.1.1.1.1.1.1.1.1.1.1.1.1.1.1.2.1.2.1.2.1.2.1.2.1.2.1.2.1.2.1.3.1.3.1h25.5l.2-.1.2-.1.2-.1.2-.1.2-.1.2-.1.2-.1.3-.1.3-.1.3-.1.3-.2.3-.2.3-.2.3-.2.3-.2.3-.2.2-.2.2-.3.2-.3.2-.3.2-.3.2-.3.2-.4.2-.4.2-.4.2-.4.2-.5.2-.5.2-.5.2-.5.3-.5.3-.5.3-.5.3-.5.4-.6.4-.6.4-.6.5-.6.5-.6.5-.6.6-.6.6-.6.6-.6.6-.6.7-.5.7-.5.7-.5.8-.5.8-.5.8-.5.9-.5.9-.5.9-.4,1-.4,1-.4,1-.4,1.1-.3,1.1-.3,1.2-.3,1.2-.2,1.2-.2,1.3-.2,1.3-.1,1.3-.1,1.4-.1h10.3l-.2-.1-.2-.1-.2-.1-.2-.1-.2-.1-.2-.1-.2-.1-.2-.1-.2-.1-.2-.1-.2-.1-.2-.1-.2-.1-.2-.1-.2-.1-.2-.1-.2-.1-.2-.1h-.2l-.2-.1-.2-.1H422l-.2-.1h-.2l-.2-.1h-2.8l-.4-.1-.4-.1-.4-.1-.4-.1-.4-.1-.4-.1h-.4l-.4-.1H415l-.4-.1H398l-.3-.1-.2-.1-.2-.1-.2-.1-.2-.1-.2-.1-.2-.1-.2-.1-.2-.1-.2-.1-.2-.2-.1-.2-.1-.2-.1-.2-.1-.2-.1-.2-.1-.1-.1-.1V76.2h0v-.4h0v-.2h0v-.1h0v-.2h0v-.1h0V75h0v-.4h0v-.4h0v-.5h0v-.4h0l.1-.1.1-.1.1-.1.1-.1.1-.1.1-.1.1-.1.1-.1.1-.1.1-.1.1-.1.1-.1.1-.1.1-.1.1-.1.1-.1.1-.1.1-.1.1-.1.1-.1.2-.1.1-.1.1-.1.1-.1.2-.1.2-.1.2-.1.2-.1.2-.1.2-.1.2-.1.2-.1.2-.1.2-.1.2-.1.2-.1.2-.1.2-.1.2-.1.2-.1.2-.1h.4l.2-.1h7.2l1.1.1,1.1.1,1.2.2,1.2.2,1.2.2,1.3.2,1.3.2,1.4.2,1.4.3,1.4.3,1.5.3,1.5.3,1.5.3,1.5.3,1.5.4,1.5.4,1.6.4,1.6.4,1.6.4,1.6.4,1.6.4,1.6.4,1.6.4,1.5.4,1.5.4,1.5.5,1.5.5,1.5.5,1.5.5,1.4.5,1.4.5,1.4.5,1.3.5,1.3.5,1.2.5,1.2.5,1.2.5,1.1.5,1.1.5,1,.5,1,.5,1,.5,1,.5,1.1.5,1,.5,1.1.5,1.1.5,1.1.5,1.1.6,1.1.6,1.1.6,1.1.6,1.1.6,1.1.6,1.1.6,1.1.6,1.1.7,1.1.7,1,.7,1,.7,1,.7,1,.8,1,.8,1,.8,1,.9.9.9.9.9.9.9.8,1,.8,1,.8,1,.8,1.1.7,1.1.7,1.1.6,1.2.6,1.2.5,1.3.5,1.3.5,1.4.4,1.4h0v1.2l.1.3v3.4l-.1.4-.1.4-.1.4-.1.4-.1.4-.2.4-.2.4-.2.4-.3.4-.3.4-.3.4-.4.4-.4.4-.5.3-.5.3-.5.3-.6.3-.6.2-.7.2-.7.2-.8.1-.8.1h-.3l-.3-.1-.4-.1-.5-.1-.6-.1-.7-.1-.8-.1-.9-.2-1-.2-1.1-.2-1.2-.2-1.3-.2-1.4-.2-1.4-.2-1.5-.2-1.6-.2-1.6-.3-1.7-.3-1.7-.3-1.8-.3-1.8-.3-1.9-.3-1.9-.3-1.9-.3-2-.3-2-.3-2-.3-2-.2-2-.2-2.1-.2-2.1-.2-2.1-.2-2.1-.2-2.1-.2-2-.2-2-.2-2-.2-2-.1-2-.1-1.9-.1-1.9-.1-1.8-.1-1.8-.1-1.7-.1-1.6-.1-1.6-.1-1.5-.1-1.5-.1H393.8l-.2-.1h-.4l-.2-.1-.2-.1-.2-.1-.2-.1-.2-.1-.2-.1-.2-.1-.2-.1-.2-.1-.2-.1-.2-.1-.2-.1-.2-.1-.2-.1-.2-.1-.2-.1-.2-.2-.2-.1-.2-.2-.2-.2h0v1.3l-.1.2v.2l-.1.2-.1.2-.1.2-.1.2-.1.2-.1.2-.1.2-.1.2-.1.2-.2.2-.2.2-.2.2-.2.2-.2.2-.2.2-.3.2.3.6-.3.1-.3.1-.3.1-.3.1-.4.1-.4.1H351.7l-.1.1h-.1l-.1.1-.1.1-.1.1-.1.1-.1.1-.1.1-.1.1-.1.1-.1.2-.1.2-.1.2-.1.2-.1.2-.1.2-.1.2-.1.3-.1.3-.1.3-.1.3-.1.4-.1.4-.1.4-.1.4-.1.4v12.2l-.1,1.4-.1,1.4-.1,1.5-.1,1.5-.1,1.5-.1,1.5-.1,1.5-.1,1.5-.1,1.5-.1,1.5-.2,1.5-.2,1.4-.2,1.4-.2,1.4-.2,1.3-.2,1.3-.2,1.2-.2,1.1-.3,1.1-.3,1-.3.9-.3.8-.3.7-.3.6-.4.5h-6.7v-6.1h0v-4.7l-.1-.6-.1-.6-.1-.6-.1-.6-.1-.6-.1-.6-.1-.6-.1-.7-.1-.6-.1-.7-.2-.7-.2-.7-.2-.7-.2-.6-.2-.7-.2-.6-.3-.6-.3-.6-.3-.6-.3-.6-.4-.6-.4-.5-.4-.5-.4-.5-.4-.5-.5-.5-.5-.5-.5-.5-.5-.5-.5-.5-.5-.5-.5-.5-.6-.5-.6-.5-.6-.5-.6-.5-.6-.6-.6-.5-.6-.6-.6-.6-.6-.6-.6-.6-.6-.6-.7-.6-.7-.6-.7-.6-.7-.6-.7-.6-.7-.5-.7-.6-.7-.5-.7-.5-.7-.5-.7-.5-.7-.5-.7-.5-.8-.5-.8-.5-.8-.5-.8-.5-.8-.5-.8-.4-.8-.4-.8-.4-.8-.4h0v-6.4l.1-.4v-.4l.1-.4.1-.4.1-.4H295.6l-.1-.1-.1-.1h-.1l-.1-.1-.1-.1-.1-.1-.1-.1-.1-.1-.1-.1-.1-.1-.1-.1-.1-.1-.1-.1-.1-.1v.6l-65.1.4H216.7l-.4-.1-.4-.1-.4-.1-.4-.1-.4-.1-.4-.1-.4-.1-.4-.1-.4-.1-.4-.2-.4-.2-.4-.2-.3-.2-.3-.2-.3-.2-.3-.3-.3-.3-.3-.3-.2-.3-.2-.4-.2-.4-.2-.4-.2-.4-.2-.4-.1-.5-.1-.5-.1-.5-.1-.6v-1.8l.1-.6.1-.6.2-.5.2-.5.3-.5.3-.5.4-.5.4-.4.4-.4.5-.4.5-.4.5-.4.5-.4.6-.3.6-.3.6-.3.6-.3.6-.3.6-.3.6-.2.6-.2.6-.2.6-.2.6-.2.6-.2.5-.2.5-.1.5-.1.5-.1.4-.1.4-.1.4-.1.3-.1.3-.1h1l.3-.1.4-.1.4-.1.5-.1.6-.1.6-.1.6-.1.7-.2.8-.2.8-.2.8-.2.9-.2.9-.2.9-.2.9-.2,1-.2,1-.2,1-.2,1-.2,1-.2,1-.2,1-.2,1-.2,1-.2,1-.2.9-.2.9-.2.9-.2.9-.1.8-.1.8-.1.7-.1.7-.1.7-.1.6-.1.6-.1h2.2l.2-.1.2-.1.2-.1.1-.1.1-.1.1-.1v-.4l-.1-.1-.1-.1-.1-.1-.1-.1-.1-.1-.1-.1-.1-.1-.1-.1-.1-.1-.1-.1-.1-.1-.2-.1-.1-.1-.1-.1-.1-.1h-.1l-.1-.1H237.9l-.2-.1h-.1l-.2-.1-.2-.1-.2-.1-.2-.1-.2-.1-.2-.1-.2-.1-.2-.1-.2-.1-.2-.1-.2-.2-.2-.2-.2-.2-.2-.2-.2-.2-.1-.2-.1-.2-.1-.2-.1-.3-.1-.3-.1-.3-.1-.3-.1-.3-.1-.4-.1-.4V81.6l.1-.3.1-.3.1-.3.1-.3.1-.3.1-.2.1-.2.1-.2.1-.2.1-.2.2-.2.2-.2.2-.2.2-.2.2-.1.2-.1.2-.1.2-.1.2-.1.2-.1.2-.1.2-.1.2-.1.2-.1.2-.1.2-.1h4.6l.8.1.8.1,1,.1,1,.1,1.1.1,1.2.1,1.2.2,1.3.2,1.3.2,1.4.2,1.4.2,1.5.3,1.5.3,1.6.3,1.6.3,1.6.3,1.6.4,1.6.4,1.6.4,1.6.4,1.6.4,1.6.5,1.6.5,1.5.5,1.5.5,1.5.5,1.4.6,1.4.6,1.3.6,1.3.6,1.2.7,1.1.7,1.1.7,1,.7.9.8.8.8.8.8.8.7.7.7.7.6.7.6.6.6.6.6.6.5.6.5.5.5.5.4.5.4.4.4.4.3.4.3.4.3.4.3.3.2.3.2.3.2.3.2.3.2.2.1.2.1.2.1.2.1.2.1.2.1.2.1.2.1h7.7l.9.1.9.1.9.1,1,.1,1,.1,1,.1,1,.1,1,.1,1,.1,1,.1,1,.2,1.1.2,1,.2,1,.2,1,.2,1,.2,1,.2,1,.2.9.3.9.3.9.3.9.3.8.3.8.4.7.4.7.4.6.4.6.4h3.9l.1-.1.1-.1.1-.1.1-.1.1-.1.1-.1.1-.1.1-.1.1-.1.1-.1.1-.2.1-.2.1-.2.1-.2.1-.2.1-.2.1-.3.1-.3.1-.3.1-.3.1-.3.1-.3.1-.4.1-.4.1-.4.1-.5.1-.5.1-.6.1-.6.1-.7.2-.7.2-.8.2-.8.2-.9.2-.9.2-1,.3-1,.3-1.1.3-1.1.3-1.1.3-1.2.3-1.2.4-1.2.4-1.3.4-1.3.4-1.3.4-1.4.4-1.4.4-1.4.5-1.4.5-1.5.5-1.5.5-1.5.5-1.5.5-1.5.5-1.5.5-1.5.6-1.5.6-1.5.6-1.6.6-1.5.6-1.6.6-1.5.6-1.6.6-1.5L358,53l.6-1.4.6-1.3.6-1.3.6-1.2.5-1.1.5-1,.5-1,.5-.9.5-.9.5-.8.5-.7.5-.7.5-.6.5-.6.4-.5.4-.5.4-.4.4-.4.4-.3.4-.3.4-.3.4-.2.3-.2.3-.2.3-.1.3-.1.3-.1.2-.1h1Zm-45.5,89.3-.4.2-.3.2-.2.2-.2.1-.1.1-.1.1v.1h0l.1.2.4.5.6.7.8.9.9,1.1,1.1,1.3,1.2,1.4,1.3,1.4,1.5,1.5,1,.9.9.7.8.5.7.2h.7l.6-.2.5-.5.4-.7.4-.9V124.9l-12,1.1Zm101.4-25-2,.1-1.9.1-1.8.1-1.7.2-1.6.2-1.5.2-1.4.2-1.3.2-1.2.2-1.1.2-1,.2-.9.2-.9.2-.8.2-.7.2-.6.2-.5.2-.4.2-.3.1-.3.1-.2.1h-.1l.4.4.5.4.5.3.5.3.6.3.6.2.6.2.7.2.7.2.7.1.7.1.7.1.8.1.8.1.8.1H441l1.2.1,1.2.1,1.2.1,1.2.1,1.2.1,1.2.1,1.2.1,1.2.1,1.2.1,1.2.1,1.2.1,1.2.1,1.2.1,1.2.2,1.2.2,1.2.2,1.2.2.4.1.5.1.5.1.5.1.5.1.5.1.5.1.5.1.5.1.5.1.5.1h.5l.5.1h1.5l.5.1h11.7l-.1-.1-.1-.1-.1-.1-.1-.1-.1-.1-.1-.1-.1-.1-.1-.1-.1-.1-.1-.1-.1-.1-.1-.1-.1-.1-.1-.1-.1-.1-.1-.1-.1-.1-.1-.1-.1-.1-.1-.1-.1-.1-.1-.1-.1-.1-.1-.1-.1-.1-.1-.1-.1-.1-.1-.1-.1-.1-.1-.1-1-.5-1-.5-1-.5-1-.4-1-.4-1-.4-1-.4-1-.4-1.1-.3-1.1-.3-1.1-.3-1.1-.3-1.1-.3-1.1-.2-1.1-.2-1.1-.2-1.1-.2-1.1-.2-1.1-.2-1.1-.2-1.1-.2-1.1-.1-1.1-.1-1.1-.1-1.1-.1-1.1-.1-1.1-.1-1.1-.1-1.1-.1-1-.1-2.8-.2-2.7-.1-2.6-.1-2.5-.1h-4.6ZM256,104l-1.8.5-1,.4-.2.1.1.2.4.4.6.4.9.3h1.1l1.4-.5,1.8-.7,2.3-.5,2.4-.3,2.2-.2,1.5-.1h.6l-5.4-.3-4,.1Z" transform="translate(-1.86 -4.5)"/><path id="c6StmQ7vy-2" data-name="c6StmQ7vy" class="cls-4" d="M371.8,36.8h.4l.1.1.1.1.2.1.2.1.2.1.2.1.2.1.2.1.2.2.2.2.2.2.2.2.2.2.2.2.2.2.2.3.2.3.2.3.2.3.2.3.2.3.2.4.2.4.2.4.2.4.1.4.1.4.1.4.1.5.1.5v2.1l-.1.6h0V48l-.1.1v.1l-.1.1-.1.1-.1.1-.1.1-.1.1-.1.1-.1.1-.1.1-.1.1-.1.1-.1.1-.1.1-.1.1-.1.1-.1.1-.2.1-.2.1-.2.1-.2.1-.2.1-.2.1-.2.1-.2.1-.2.1-.2.1-.2.1H373l-.1.1-.1.1-.1.1-.1.1-.1.1-.1.1-.1.1-.1.1-.1.1-.1.1-.1.1-.1.1-.1.1-.1.1-.1.1-.1.1-.1.2-.1.1-.1.1-.1.2-.1.2-.1.2-.1.2-.1.2-.1.2-.1.2-.1.2-.1.3-.2.4-.3.5-.3.6-.4.7-.4.8-.4.9-.5,1-.5,1.1-.5,1.2-.6,1.3-.6,1.3-.6,1.4-.6,1.5-.6,1.5-.6,1.6-.7,1.6-.7,1.6-.7,1.7-.7,1.7-.7,1.7-.7,1.7-.6,1.7-.6,1.7-.6,1.7-.6,1.7L356,89l-.5,1.7-.5,1.6-.5,1.6-.4,1.6-.4,1.5-.3,1.5-.3,1.4-.2,1.4.1,2.7-.1,1.2-.1,1.1v1l.1,1h0v.5l.1.1v.1l.1.1.1.1.1.1.1.1.1.1.1.1.1.1.1.1.1.1.1.1.1.1.2.1.2.1.2.1.2.1.2.1.2.1.2.1.2.1.3.1.3.1h25.5l.2-.1.2-.1.2-.1.2-.1.2-.1.2-.1.2-.1.3-.1.3-.1.3-.1.3-.2.3-.2.3-.2.3-.2.3-.2.3-.2.2-.2.2-.3.2-.3.2-.3.2-.3.2-.3.2-.4.2-.4.2-.4.2-.4.2-.5.2-.5.2-.5.2-.5.3-.5.3-.5.3-.5.3-.5.4-.6.4-.6.4-.6.5-.6.5-.6.5-.6.6-.6.6-.6.6-.6.6-.6.7-.5.7-.5.7-.5.8-.5.8-.5.8-.5.9-.5.9-.5.9-.4,1-.4,1-.4,1-.4,1.1-.3,1.1-.3,1.2-.3,1.2-.2,1.2-.2,1.3-.2,1.3-.1,1.3-.1,1.4-.1h10.3l-.2-.1-.2-.1-.2-.1-.2-.1-.2-.1-.2-.1-.2-.1-.2-.1-.2-.1-.2-.1-.2-.1-.2-.1-.2-.1-.2-.1-.2-.1-.2-.1-.2-.1-.2-.1h-.2l-.2-.1-.2-.1H422l-.2-.1h-.2l-.2-.1h-2.8l-.4-.1-.4-.1-.4-.1-.4-.1-.4-.1-.4-.1h-.4l-.4-.1H415l-.4-.1H398l-.3-.1-.2-.1-.2-.1-.2-.1-.2-.1-.2-.1-.2-.1-.2-.1-.2-.1-.2-.1-.2-.2-.1-.2-.1-.2-.1-.2-.1-.2-.1-.2-.1-.1-.1-.1V76.2h0v-.4h0v-.2h0v-.1h0v-.2h0v-.1h0V75h0v-.4h0v-.4h0v-.5h0v-.4h0l.1-.1.1-.1.1-.1.1-.1.1-.1.1-.1.1-.1.1-.1.1-.1.1-.1.1-.1.1-.1.1-.1.1-.1.1-.1.1-.1.1-.1.1-.1.1-.1.1-.1.2-.1.1-.1.1-.1.1-.1.2-.1.2-.1.2-.1.2-.1.2-.1.2-.1.2-.1.2-.1.2-.1.2-.1.2-.1.2-.1.2-.1.2-.1.2-.1.2-.1.2-.1h.4l.2-.1h7.2l1.1.1,1.1.1,1.2.2,1.2.2,1.2.2,1.3.2,1.3.2,1.4.2,1.4.3,1.4.3,1.5.3,1.5.3,1.5.3,1.5.3,1.5.4,1.5.4,1.6.4,1.6.4,1.6.4,1.6.4,1.6.4,1.6.4,1.6.4,1.5.4,1.5.4,1.5.5,1.5.5,1.5.5,1.5.5,1.4.5,1.4.5,1.4.5,1.3.5,1.3.5,1.2.5,1.2.5,1.2.5,1.1.5,1.1.5,1,.5,1,.5,1,.5,1,.5,1.1.5,1,.5,1.1.5,1.1.5,1.1.5,1.1.6,1.1.6,1.1.6,1.1.6,1.1.6,1.1.6,1.1.6,1.1.6,1.1.7,1.1.7,1,.7,1,.7,1,.7,1,.8,1,.8,1,.8,1,.9.9.9.9.9.9.9.8,1,.8,1,.8,1,.8,1.1.7,1.1.7,1.1.6,1.2.6,1.2.5,1.3.5,1.3.5,1.4.4,1.4h0v1.2l.1.3v3.4l-.1.4-.1.4-.1.4-.1.4-.1.4-.2.4-.2.4-.2.4-.3.4-.3.4-.3.4-.4.4-.4.4-.5.3-.5.3-.5.3-.6.3-.6.2-.7.2-.7.2-.8.1-.8.1h-.3l-.3-.1-.4-.1-.5-.1-.6-.1-.7-.1-.8-.1-.9-.2-1-.2-1.1-.2-1.2-.2-1.3-.2-1.4-.2-1.4-.2-1.5-.2-1.6-.2-1.6-.3-1.7-.3-1.7-.3-1.8-.3-1.8-.3-1.9-.3-1.9-.3-1.9-.3-2-.3-2-.3-2-.3-2-.2-2-.2-2.1-.2-2.1-.2-2.1-.2-2.1-.2-2.1-.2-2-.2-2-.2-2-.2-2-.1-2-.1-1.9-.1-1.9-.1-1.8-.1-1.8-.1-1.7-.1-1.6-.1-1.6-.1-1.5-.1-1.5-.1H393.8l-.2-.1h-.4l-.2-.1-.2-.1-.2-.1-.2-.1-.2-.1-.2-.1-.2-.1-.2-.1-.2-.1-.2-.1-.2-.1-.2-.1-.2-.1-.2-.1-.2-.1-.2-.1-.2-.2-.2-.1-.2-.2-.2-.2h0v1.3l-.1.2v.2l-.1.2-.1.2-.1.2-.1.2-.1.2-.1.2-.1.2-.1.2-.1.2-.2.2-.2.2-.2.2-.2.2-.2.2-.2.2-.3.2.3.6-.3.1-.3.1-.3.1-.3.1-.4.1-.4.1H351.7l-.1.1h-.1l-.1.1-.1.1-.1.1-.1.1-.1.1-.1.1-.1.1-.1.1-.1.2-.1.2-.1.2-.1.2-.1.2-.1.2-.1.2-.1.3-.1.3-.1.3-.1.3-.1.4-.1.4-.1.4-.1.4-.1.4v12.2l-.1,1.4-.1,1.4-.1,1.5-.1,1.5-.1,1.5-.1,1.5-.1,1.5-.1,1.5-.1,1.5-.1,1.5-.2,1.5-.2,1.4-.2,1.4-.2,1.4-.2,1.3-.2,1.3-.2,1.2-.2,1.1-.3,1.1-.3,1-.3.9-.3.8-.3.7-.3.6-.4.5h-6.7v-6.1h0v-4.7l-.1-.6-.1-.6-.1-.6-.1-.6-.1-.6-.1-.6-.1-.6-.1-.7-.1-.6-.1-.7-.2-.7-.2-.7-.2-.7-.2-.6-.2-.7-.2-.6-.3-.6-.3-.6-.3-.6-.3-.6-.4-.6-.4-.5-.4-.5-.4-.5-.4-.5-.5-.5-.5-.5-.5-.5-.5-.5-.5-.5-.5-.5-.5-.5-.6-.5-.6-.5-.6-.5-.6-.5-.6-.6-.6-.5-.6-.6-.6-.6-.6-.6-.6-.6-.6-.6-.7-.6-.7-.6-.7-.6-.7-.6-.7-.6-.7-.5-.7-.6-.7-.5-.7-.5-.7-.5-.7-.5-.7-.5-.7-.5-.8-.5-.8-.5-.8-.5-.8-.5-.8-.5-.8-.4-.8-.4-.8-.4-.8-.4h0v-6.4l.1-.4v-.4l.1-.4.1-.4.1-.4H295.6l-.1-.1-.1-.1h-.1l-.1-.1-.1-.1-.1-.1-.1-.1-.1-.1-.1-.1-.1-.1-.1-.1-.1-.1-.1-.1-.1-.1v.6l-65.1.4H216.7l-.4-.1-.4-.1-.4-.1-.4-.1-.4-.1-.4-.1-.4-.1-.4-.1-.4-.1-.4-.2-.4-.2-.4-.2-.3-.2-.3-.2-.3-.2-.3-.3-.3-.3-.3-.3-.2-.3-.2-.4-.2-.4-.2-.4-.2-.4-.2-.4-.1-.5-.1-.5-.1-.5-.1-.6v-1.8l.1-.6.1-.6.2-.5.2-.5.3-.5.3-.5.4-.5.4-.4.4-.4.5-.4.5-.4.5-.4.5-.4.6-.3.6-.3.6-.3.6-.3.6-.3.6-.3.6-.2.6-.2.6-.2.6-.2.6-.2.6-.2.5-.2.5-.1.5-.1.5-.1.4-.1.4-.1.4-.1.3-.1.3-.1h1l.3-.1.4-.1.4-.1.5-.1.6-.1.6-.1.6-.1.7-.2.8-.2.8-.2.8-.2.9-.2.9-.2.9-.2.9-.2,1-.2,1-.2,1-.2,1-.2,1-.2,1-.2,1-.2,1-.2,1-.2,1-.2.9-.2.9-.2.9-.2.9-.1.8-.1.8-.1.7-.1.7-.1.7-.1.6-.1.6-.1h2.2l.2-.1.2-.1.2-.1.1-.1.1-.1.1-.1v-.4l-.1-.1-.1-.1-.1-.1-.1-.1-.1-.1-.1-.1-.1-.1-.1-.1-.1-.1-.1-.1-.1-.1-.2-.1-.1-.1-.1-.1-.1-.1h-.1l-.1-.1H237.9l-.2-.1h-.1l-.2-.1-.2-.1-.2-.1-.2-.1-.2-.1-.2-.1-.2-.1-.2-.1-.2-.1-.2-.1-.2-.2-.2-.2-.2-.2-.2-.2-.2-.2-.1-.2-.1-.2-.1-.2-.1-.3-.1-.3-.1-.3-.1-.3-.1-.3-.1-.4-.1-.4V81.6l.1-.3.1-.3.1-.3.1-.3.1-.3.1-.2.1-.2.1-.2.1-.2.1-.2.2-.2.2-.2.2-.2.2-.2.2-.1.2-.1.2-.1.2-.1.2-.1.2-.1.2-.1.2-.1.2-.1.2-.1.2-.1.2-.1h4.6l.8.1.8.1,1,.1,1,.1,1.1.1,1.2.1,1.2.2,1.3.2,1.3.2,1.4.2,1.4.2,1.5.3,1.5.3,1.6.3,1.6.3,1.6.3,1.6.4,1.6.4,1.6.4,1.6.4,1.6.4,1.6.5,1.6.5,1.5.5,1.5.5,1.5.5,1.4.6,1.4.6,1.3.6,1.3.6,1.2.7,1.1.7,1.1.7,1,.7.9.8.8.8.8.8.8.7.7.7.7.6.7.6.6.6.6.6.6.5.6.5.5.5.5.4.5.4.4.4.4.3.4.3.4.3.4.3.3.2.3.2.3.2.3.2.3.2.2.1.2.1.2.1.2.1.2.1.2.1.2.1.2.1h7.7l.9.1.9.1.9.1,1,.1,1,.1,1,.1,1,.1,1,.1,1,.1,1,.1,1,.2,1.1.2,1,.2,1,.2,1,.2,1,.2,1,.2,1,.2.9.3.9.3.9.3.9.3.8.3.8.4.7.4.7.4.6.4.6.4h3.9l.1-.1.1-.1.1-.1.1-.1.1-.1.1-.1.1-.1.1-.1.1-.1.1-.1.1-.2.1-.2.1-.2.1-.2.1-.2.1-.2.1-.3.1-.3.1-.3.1-.3.1-.3.1-.3.1-.4.1-.4.1-.4.1-.5.1-.5.1-.6.1-.6.1-.7.2-.7.2-.8.2-.8.2-.9.2-.9.2-1,.3-1,.3-1.1.3-1.1.3-1.1.3-1.2.3-1.2.4-1.2.4-1.3.4-1.3.4-1.3.4-1.4.4-1.4.4-1.4.5-1.4.5-1.5.5-1.5.5-1.5.5-1.5.5-1.5.5-1.5.5-1.5.6-1.5.6-1.5.6-1.6.6-1.5.6-1.6.6-1.5.6-1.6.6-1.5L358,53l.6-1.4.6-1.3.6-1.3.6-1.2.5-1.1.5-1,.5-1,.5-.9.5-.9.5-.8.5-.7.5-.7.5-.6.5-.6.4-.5.4-.5.4-.4.4-.4.4-.3.4-.3.4-.3.4-.2.3-.2.3-.2.3-.1.3-.1.3-.1.2-.1h1Zm-45.5,89.3-.4.2-.3.2-.2.2-.2.1-.1.1-.1.1v.1h0l.1.2.4.5.6.7.8.9.9,1.1,1.1,1.3,1.2,1.4,1.3,1.4,1.5,1.5,1,.9.9.7.8.5.7.2h.7l.6-.2.5-.5.4-.7.4-.9V124.9l-12,1.1Zm101.4-25-2,.1-1.9.1-1.8.1-1.7.2-1.6.2-1.5.2-1.4.2-1.3.2-1.2.2-1.1.2-1,.2-.9.2-.9.2-.8.2-.7.2-.6.2-.5.2-.4.2-.3.1-.3.1-.2.1h-.1l.4.4.5.4.5.3.5.3.6.3.6.2.6.2.7.2.7.2.7.1.7.1.7.1.8.1.8.1.8.1H441l1.2.1,1.2.1,1.2.1,1.2.1,1.2.1,1.2.1,1.2.1,1.2.1,1.2.1,1.2.1,1.2.1,1.2.1,1.2.1,1.2.2,1.2.2,1.2.2,1.2.2.4.1.5.1.5.1.5.1.5.1.5.1.5.1.5.1.5.1.5.1.5.1h.5l.5.1h1.5l.5.1h11.7l-.1-.1-.1-.1-.1-.1-.1-.1-.1-.1-.1-.1-.1-.1-.1-.1-.1-.1-.1-.1-.1-.1-.1-.1-.1-.1-.1-.1-.1-.1-.1-.1-.1-.1-.1-.1-.1-.1-.1-.1-.1-.1-.1-.1-.1-.1-.1-.1-.1-.1-.1-.1-.1-.1-.1-.1-.1-.1-.1-.1-1-.5-1-.5-1-.5-1-.4-1-.4-1-.4-1-.4-1-.4-1.1-.3-1.1-.3-1.1-.3-1.1-.3-1.1-.3-1.1-.2-1.1-.2-1.1-.2-1.1-.2-1.1-.2-1.1-.2-1.1-.2-1.1-.2-1.1-.1-1.1-.1-1.1-.1-1.1-.1-1.1-.1-1.1-.1-1.1-.1-1.1-.1-1-.1-2.8-.2-2.7-.1-2.6-.1-2.5-.1h-4.6ZM256,104l-1.8.5-1,.4-.2.1.1.2.4.4.6.4.9.3h1.1l1.4-.5,1.8-.7,2.3-.5,2.4-.3,2.2-.2,1.5-.1h.6l-5.4-.3-4,.1Z" transform="translate(-1.86 -4.5)"/><path id="cB87tKATF" d="M7.1,108q80.85,2.1,89.8,2.2s87.6,2.2,97.7-10.5c0,0-1.1-7.5-54.6-10.1,0,0-33.7-1.5-59.1,0,0,0-6.4,1.1-6.7-6S98.1,75,98.1,75L155,66c24.7-4.7,38.4-7.3,41.2-7.9,0,0,7.1-1.9,7.1,4.9,0,6.4-16.1,4.9-16.1,4.9S164,66,116.8,78.8c0,0-3.4,2.2,1.5,2.6,4.5,0,41.5-2.2,62.9,4.5,21.3,6.4,26.2,8.6,25.8,16.1-.8,7.9-13.5,14.2-33.7,15.3-19.8,1.5-85.7,3-85.7,3s-62.9-2.6-79.7,0c0,0-6,1.9-5.2-7.1-.8-.4-.5-5.2,4.4-5.2" transform="translate(-1.86 -4.5)"/><path id="cB87tKATF-2" data-name="cB87tKATF" class="cls-4" d="M7.1,108q80.85,2.1,89.8,2.2s87.6,2.2,97.7-10.5c0,0-1.1-7.5-54.6-10.1,0,0-33.7-1.5-59.1,0,0,0-6.4,1.1-6.7-6S98.1,75,98.1,75L155,66c24.7-4.7,38.4-7.3,41.2-7.9,0,0,7.1-1.9,7.1,4.9,0,6.4-16.1,4.9-16.1,4.9S164,66,116.8,78.8c0,0-3.4,2.2,1.5,2.6,4.5,0,41.5-2.2,62.9,4.5,21.3,6.4,26.2,8.6,25.8,16.1-.8,7.9-13.5,14.2-33.7,15.3-19.8,1.5-85.7,3-85.7,3s-62.9-2.6-79.7,0c0,0-6,1.9-5.2-7.1-.8-.4-.5-5.2,4.4-5.2" transform="translate(-1.86 -4.5)"/></svg>